<?xml version="1.0" encoding="iso-8859-1"?>
<!-- Uploaded to: SVG Repo, www.svgrepo.com, Generator: SVG Repo Mixer Tools -->
<svg version="1.1" id="Layer_1" xmlns="http://www.w3.org/2000/svg" xmlns:xlink="http://www.w3.org/1999/xlink" 
	 viewBox="0 0 475.12 475.12" xml:space="preserve">
<g>
	<rect x="151.62" y="283" style="fill:#A18671;" width="175" height="32"/>
	<rect x="211.56" y="40" style="fill:#A18671;" width="56" height="32"/>
	<path style="fill:#F8A805;" d="M273.837,155.244c-3.092-24.638-5.058-50.036-5.842-75.491L267.756,72h-56.394l-0.238,7.754
		c-0.783,25.447-2.749,50.846-5.842,75.49l-1.129,8.996h70.813L273.837,155.244z"/>
	<rect x="181.771" y="164.24" style="fill:#A18671;" width="114.7" height="30.88"/>
	<path style="fill:#F8A805;" d="M301.748,283l-3.121-10.316c-7.006-23.161-12.88-47.069-17.459-71.063l-1.241-6.5h-80.735
		l-1.241,6.5c-4.58,23.998-10.454,47.907-17.459,71.063L177.372,283h39.249v-17.72c0-12.285,9.99-22.28,22.27-22.28h0.45
		c12.285,0,22.279,9.995,22.279,22.28V283H301.748z"/>
	<path style="fill:#F8A805;" d="M364.677,423.067c-19.524-33.223-36.276-67.858-49.792-102.942L312.912,315H166.208l-1.974,5.124
		c-13.516,35.085-30.268,69.721-49.792,102.943l-7.083,12.053h69.014l0.233-7.76c0.64-21.333,7.28-41.413,18.696-56.537
		C207.398,354.816,223.471,346,240.56,346c17.088,0,33.161,8.816,45.255,24.82c11.418,15.126,18.059,35.206,18.699,56.54l0.232,7.76
		h67.014L364.677,423.067z"/>
	<rect x="292.06" y="435.12" style="fill:#A18671;" width="92.5" height="32"/>
	<rect x="94.56" y="435.12" style="fill:#A18671;" width="92.5" height="32"/>
	<g>
		<path d="M384.56,427.12h-8.14c-20.41-33.73-37.66-68.37-51.79-104.12h1.99c4.42,0,8-3.58,8-8v-32c0-4.42-3.58-8-8-8h-18.89
			c-7.28-23.45-13.31-47.4-18.1-71.88h6.84c4.42,0,8-3.58,8-8v-30.88c0-4.42-3.58-8-8-8h-14.42c-3.53-27.44-5.63-55.54-6.26-84.41
			c-0.01-0.6-0.09-1.18-0.23-1.73V40c0-4.42-3.58-8-8-8h-20V8c0-3.95-2.85-7.22-6.61-7.88c-0.45-0.08-0.92-0.12-1.39-0.12
			s-0.94,0.04-1.39,0.12c-3.76,0.66-6.61,3.93-6.61,7.88v24h-20c-4.42,0-8,3.58-8,8v30.1c-0.14,0.55-0.22,1.13-0.23,1.73
			c-0.63,28.87-2.73,56.97-6.26,84.41h-15.3c-4.42,0-8,3.58-8,8v30.88c0,4.42,3.58,8,8,8h7.72c-4.79,24.48-10.82,48.43-18.1,71.88
			h-19.77c-4.42,0-8,3.58-8,8v32c0,4.42,3.58,8,8,8h2.87c-14.14,35.75-31.38,70.39-51.79,104.12h-8.14c-4.42,0-8,3.58-8,8v32
			c0,4.42,3.58,8,8,8h92.5c4.42,0,8-3.58,8-8v-32c0-4.42-3.58-8-8-8h-2.43c1.39-40.64,25.94-73.12,55.93-73.12
			s54.54,32.48,55.93,73.12h-4.43c-4.42,0-8,3.58-8,8v32c0,4.42,3.58,8,8,8h92.5c4.42,0,8-3.58,8-8v-32
			C392.56,430.7,388.98,427.12,384.56,427.12z M219.56,48h40v16h-40L219.56,48L219.56,48z M219.12,80H260
			c0.8,25.99,2.78,51.38,5.9,76.24h-52.68C216.34,131.38,218.321,105.99,219.12,80z M189.771,172.24h98.7v14.88h-98.7V172.24z
			 M205.81,203.12h67.5c4.67,24.47,10.56,48.41,17.66,71.88h-21.35v-9.72c0-16.7-13.58-30.28-30.28-30.28h-0.45
			c-16.69,0-30.27,13.58-30.27,30.28V275h-20.47C195.249,251.53,201.14,227.59,205.81,203.12z M253.62,265.28V275h-29v-9.72
			c0-7.87,6.4-14.28,14.27-14.28h0.45C247.219,251,253.62,257.41,253.62,265.28z M159.62,291h159v16h-159L159.62,291L159.62,291z
			 M179.06,459.12h-76.5v-16h76.5V459.12z M292.2,366c-13.64-18.05-31.98-28-51.64-28s-38,9.95-51.64,28
			c-12.47,16.52-19.62,38.11-20.31,61.12h-47.27c19.84-33.76,36.6-68.4,50.36-104.12h135.72c13.76,35.72,30.52,70.36,50.36,104.12
			h-45.27C311.82,404.11,304.67,382.52,292.2,366z M376.56,459.12h-76.5v-16h71.85c0.01,0,0.02,0,0.02,0h4.63V459.12z"/>
		<path d="M75.903,87.132c1.501,1.5,3.535,2.343,5.657,2.343c2.122,0,4.156-0.843,5.657-2.343
			c5.166-5.167,12.036-8.012,19.343-8.012s14.177,2.846,19.343,8.012c3.124,3.124,8.189,3.125,11.315,0
			c3.124-3.124,3.124-8.189,0-11.313c-8.189-8.189-19.076-12.699-30.657-12.699c-9.082,0-17.738,2.774-25,7.92
			c-7.262-5.146-15.918-7.92-25-7.92c-11.581,0-22.469,4.51-30.657,12.699c-3.124,3.124-3.124,8.189,0,11.313
			c3.125,3.125,8.19,3.124,11.315,0c5.166-5.167,12.036-8.012,19.343-8.012C63.867,79.12,70.737,81.966,75.903,87.132z"/>
		<path d="M109.56,140.475c2.122,0,4.156-0.843,5.657-2.343c5.166-5.167,12.036-8.012,19.343-8.012
			c7.307,0,14.177,2.846,19.343,8.012c3.125,3.124,8.19,3.125,11.315,0c3.124-3.124,3.124-8.189,0-11.313
			c-8.189-8.189-19.076-12.699-30.657-12.699c-9.082,0-17.738,2.774-25,7.92c-7.262-5.146-15.918-7.92-25-7.92
			c-11.581,0-22.469,4.51-30.657,12.699c-3.124,3.124-3.124,8.189,0,11.313c3.125,3.125,8.19,3.124,11.315,0
			c5.166-5.167,12.036-8.012,19.343-8.012s14.177,2.846,19.343,8.012C105.404,139.633,107.439,140.475,109.56,140.475z"/>
		<path d="M449.217,208.463c-8.189-8.189-19.076-12.699-30.657-12.699c-9.082,0-17.738,2.774-25,7.92
			c-7.262-5.146-15.918-7.92-25-7.92c-11.581,0-22.469,4.51-30.657,12.699c-3.124,3.124-3.124,8.189,0,11.313
			c3.125,3.125,8.189,3.124,11.314,0c5.166-5.167,12.036-8.012,19.343-8.012c7.307,0,14.177,2.846,19.343,8.012
			c1.501,1.501,3.535,2.343,5.657,2.343s4.156-0.843,5.657-2.343c5.166-5.167,12.036-8.012,19.343-8.012
			c7.307,0,14.177,2.846,19.343,8.012c3.125,3.125,8.189,3.125,11.314,0C452.341,216.653,452.341,211.587,449.217,208.463z"/>
	</g>
</g>
</svg>